<svg version="1.1" id="e-logo" xmlns="http://www.w3.org/2000/svg" xmlns:xlink="http://www.w3.org/1999/xlink" x="0px" y="0px" viewBox="0 0 501.934 341.295" enable-background="new 0 0 501.934 341.295" xml:space="preserve">
	<polygon fill="#a0dfff" stroke="#222" stroke-width="20" stroke-miterlimit="10" points="95.358,105.653 95.358,244.599 256.895,329.89 406.573,244.599 406.573,103.738 256.895,11.653 "/>

	<g class="svg-gray">
		<path class="e-side" d="M0,201.498v-51.033l70.263-42.034v44.253l-42.158,23.667l42.158,23.544v44.13L0,201.498z"/>
	</g>
	<g class="svg-gray">
		<path class="e-side" d="M431.67,244.025v-44.13l42.158-23.544l-42.158-23.667V108.43l70.264,42.034v51.033L431.67,244.025z"/>
	</g>
	<g class="svg-gray">
		<path d="M358.003,130.409c-17.217,10.215-34.432,20.288-51.645,30.22c-17.216,9.932-34.617,20.005-52.21,30.221 c-4.73-3.024-9.604-6.004-14.613-8.939c-5.014-2.931-10.073-5.91-15.181-8.938c11.917-7.187,23.978-14.281,36.178-21.282 c12.202-6.997,24.262-14.09,36.181-21.282c-6.811-4.35-13.764-8.464-20.857-12.343c-7.094-3.875-14.046-7.706-20.856-11.492 c-12.484,6.81-24.829,13.811-37.03,20.998c-12.201,7.191-24.544,14.378-37.03,21.565v47.51 c12.486,7.192,24.829,14.286,37.03,21.282c12.201,6.997,24.261,14.09,36.179,21.282c12.486-7.191,24.687-14.285,36.604-21.282 c11.918-6.996,24.12-14.09,36.604-21.282l30.646,17.877c-17.217,10.216-34.432,20.24-51.645,30.079 c-17.216,9.833-34.617,19.672-52.21,29.51c-17.215-9.838-34.432-19.77-51.643-29.795c-17.216-10.029-34.619-19.96-52.211-29.794 V131.26c14.565-8.513,29.511-17.167,44.833-25.964s30.455-17.451,45.401-25.964c2.08-1.321,4.208-2.695,6.384-4.114 c2.173-1.418,4.301-2.598,6.385-3.547c1.321-0.377,2.695-0.142,4.114,0.709c1.419,0.851,3.166,1.751,5.249,2.696 c15.892,9.461,31.923,18.776,48.098,27.95C326.932,112.205,342.68,121.329,358.003,130.409z"/>
	</g>
</svg>
